# xmcd CD database file
#
# Track frame offsets:
#	150
#	12925
#	25700
#	41620
#	52121
#	65700
#	82887
#	98836
#	110694
#	127948
#	142553
#	156629
#	171170
#	187345
#
# Disc length: 2664 seconds
#
# Revision: 0
# Processed by: cddbd v1.5.2PL0 Copyright (c) Steve Scherf et al.
# Submitted via: CDex 1.50Beta7
#
DISCID=bc0a660e
DTITLE=Truck Stop - 6 Richtige
DYEAR=2010
DGENRE=Country
TTITLE0=Was soll´n wir denn in Nashville
TTITLE1=Einfach mal nichts tun
TTITLE2=Halt mal eben mein Bier
TTITLE3=Hello I´m Johnny Cash
TTITLE4=Ju kän Denglisch
TTITLE5=Freiheit um die Nase
TTITLE6=Ein Cowboy ohne Pferd
TTITLE7=Rodeo
TTITLE8=Es liegt in Menschenhand
TTITLE9=Ich bin wieder frei
TTITLE10=HH für Hamburg
TTITLE11=Sicherheitskurt
TTITLE12=Auf dem Highway der Gefühle
TTITLE13=100.000 Kilometer
EXTD=YEAR: 2010
EXTT0=
EXTT1=
EXTT2=
EXTT3=
EXTT4=
EXTT5=
EXTT6=
EXTT7=
EXTT8=
EXTT9=
EXTT10=
EXTT11=
EXTT12=
EXTT13=
PLAYORDER=
